<svg xmlns="http://www.w3.org/2000/svg" xmlns:xlink="http://www.w3.org/1999/xlink" id="Layer_1" data-name="Layer 1" viewBox="0 0 2000 2000"><defs><style>.cls-1{fill:#fff}.cls-2{fill:#072c50}.cls-3{fill:#ff5600}.cls-4{fill:#1944b7}.cls-5{fill:url(#linear-gradient)}</style><linearGradient id="linear-gradient" x1="674.83" x2="674.83" y1="249.55" y2="1750.12" gradientUnits="userSpaceOnUse"><stop offset="0" stop-color="#faab40"/><stop offset="1" stop-color="#ef4536"/></linearGradient></defs><title>hexlen_logo_concept_1</title><rect width="2000" height="2000" class="cls-1"/><polygon points="1649.83 624.38 1649.83 1374.93 999.83 1750.2 349.83 1374.92 349.83 624.36 642.33 455.49 869.83 324.14 869.83 661.82 870.13 661.65 902.33 643.06 999.83 586.77 999.83 249.09 1649.83 624.38" class="cls-2"/><polygon points="999.83 249.09 999.83 249.55 999.03 249.55 999.83 249.09" class="cls-3"/><polygon points="870.13 661.65 869.83 661.82 869.83 661.65 870.13 661.65" class="cls-3"/><polygon points="999.83 249.01 999.83 249.09 999.03 249.55 998.9 249.55 999.83 249.01" class="cls-4"/><polygon points="999.83 249.55 999.83 586.77 902.33 643.06 870.13 661.65 869.83 661.65 869.83 249.55 999.83 249.55" class="cls-2"/><polygon points="902.33 643.06 870.13 661.65 869.83 661.82 869.83 661.65 869.83 324.08 869.83 249.55 349.83 249.55 349.83 624.3 349.83 661.65 349.83 1374.85 793.53 1631.02 999.83 1750.13 999.83 586.77 902.33 643.06" class="cls-5"/><polygon points="999.83 586.77 999.83 661.65 870.13 661.65 902.33 643.06 999.83 586.77" class="cls-4"/><polygon points="1357.33 793.17 1357.33 1205.97 999.83 1412.37 642.33 1205.97 642.33 793.17 869.83 661.82 870.13 661.65 902.33 643.06 999.83 586.77 1357.33 793.17" class="cls-1"/><rect width="227.5" height="666.9" x="642.33" y="249.55" class="cls-1"/><polygon points="869.83 1049.55 999.83 974.49 1129.83 1049.55 1129.83 1199.66 999.83 1274.71 869.83 1199.66 869.83 1049.55" class="cls-2"/><polygon points="869.83 1187.8 999.83 1112.75 1129.83 1187.8 1129.83 1337.91 999.83 1412.97 869.83 1337.91 869.83 1187.8" class="cls-2"/><polygon points="869.83 899.2 999.83 824.15 1129.83 899.2 1129.83 1049.32 999.83 1124.37 869.83 1049.32 869.83 899.2" class="cls-2"/></svg>