<svg width="343" height="484" viewBox="0 0 343 484" fill="none" xmlns="http://www.w3.org/2000/svg">
<path d="M171.289 484L31.211 445.151L0 95H343L311.755 445.1L171.289 484Z" fill="#264DE4"/>
<path d="M285.142 422.654L312 124H171V454L285.142 422.654Z" fill="#2965F1"/>
<path d="M71.7638 253.857L75.5871 296.762H171V253.857H71.7638ZM64.0838 167L67.9574 209.905H170.983V167H64H64.0838ZM170.983 365.306H170.799L123.31 352.394L120.275 318.164H77.3981L83.3677 385.543L170.698 410H170.899L170.983 365.306Z" fill="#EBEBEB"/>
<path d="M81 0H132.713V21.3571H102.616V42.7143H132.713V64.0714H81V0ZM143.143 0H194.857V18.5714H164.692V22.2857H194.789V65H143.059V45.5H173.157V41.7857H143.059V0H143.143ZM205.287 0H257V18.5714H226.751V22.2857H256.849V65H205.119V45.5H235.216V41.7857H205.119V0H205.287Z" fill="black"/>
<path d="M271.222 253.863L279 167H171V209.908H231.719L227.805 253.795H171V296.704H224.059L218.976 352.406L171 365.353V410L259.325 385.609L259.969 378.351L270.137 265.358L271.188 253.829L271.222 253.863Z" fill="white"/>
</svg>
