<svg xmlns="http://www.w3.org/2000/svg" width="480" height="480" fill="none" viewBox="0 0 480 480"><path fill="#FF8F00" d="M80 370L232.34 84.36C235.55 78.34 244.23 78.45 247.28 84.56L300 190L80 370Z"/><path fill="#FFA000" d="M80 369.92L135.46 27.93C136.91 18.98 148.93 17.04 153.13 25.08L260 229.92L80 369.92Z"/><path fill="#FF6F00" d="M80.0801 369.86L82.0801 368.29L257.37 224.88L207.93 130.12L80.0801 369.86Z"/><path fill="#FFC400" d="M80 370L346.66 112.87C352.25 107.48 361.58 110.66 362.72 118.34L400 370L250 457.43C243.91 460.85 236.48 460.85 230.39 457.43L80 370Z"/></svg>