<svg width="344" height="484" viewBox="0 0 344 484" fill="none" xmlns="http://www.w3.org/2000/svg">
<path opacity="0.1" d="M107.617 384.545L100 385V368.61L110 367C106.511 371.112 106.638 378.387 107.617 384.545Z" fill="black"/>
<path d="M344 96L312.658 445.139L171.784 484L31.3008 445.139L0 96H344Z" fill="#E44D26"/>
<path d="M171 454L285.182 422.601L312 124H171V454Z" fill="#F16529"/>
<path d="M111.494 209.9H172.979V167H64L65.0379 178.514L75.7283 296.726H173V253.825H115.48L111.494 209.9ZM121.375 318.176H77.7833L83.8654 385.538L172.792 410H173V365.235H172.813L124.406 352.328L121.375 318.176Z" fill="#EBEBEB"/>
<path d="M33 0H54.7541V21.7858H74.6476V0H96.4017V66H74.6476V43.9033H54.7541V66H33V0ZM125.005 21.8894H105.848V0H165.917V21.8894H146.759V66H125.025V21.8894H125.005ZM175.465 0H198.159L212.123 23.1954L226.067 0H248.762V66H227.09V33.2902L212.123 56.755H211.755L196.769 33.2902V66H175.465V0ZM259.578 0H281.332V44.1727H312V65.9793H259.639V0H259.578Z" fill="black"/>
<path d="M171 296.735H224.524L219.479 352.374L171 365.28V410L260.131 385.622L260.774 378.37L270.989 265.433L272.048 253.92H171V296.817V296.735ZM171 209.815V209.917H276.014L276.886 200.269L278.962 178.513L280 167H171V209.794V209.815Z" fill="white"/>
</svg>
