<svg width="436" height="436" viewBox="0 0 436 436" fill="none" xmlns="http://www.w3.org/2000/svg">
<path d="M0 0H436V436H0V0Z" fill="#F7DF1E"/>
<path d="M115 364.56L148.319 344.365C154.754 355.779 160.594 365.438 174.623 365.438C188.073 365.438 196.544 360.17 196.544 339.693V200.386H237.456V340.257C237.456 382.683 212.641 402 176.377 402C143.654 402 124.661 385.019 115.016 364.543L115 364.56ZM259.675 360.153L292.977 340.836C301.745 355.183 313.144 365.686 333.311 365.686C350.268 365.686 361.071 357.204 361.071 345.492C361.071 331.443 349.97 326.473 331.292 318.273L321.068 313.883C291.554 301.309 271.967 285.504 271.967 252.139C271.967 221.409 295.343 198 331.871 198C357.878 198 376.539 207.078 390.022 230.769L358.176 251.261C351.161 238.671 343.568 233.701 331.871 233.701C319.894 233.701 312.284 241.305 312.284 251.261C312.284 263.554 319.877 268.524 337.413 276.111L347.637 280.501C382.379 295.411 402 310.636 402 344.879C402 381.756 373.065 401.95 334.171 401.95C296.12 401.95 271.636 383.727 259.724 360.103" fill="black"/>
</svg>
