<svg xmlns="http://www.w3.org/2000/svg" width="975" height="426" fill="none" viewBox="0 0 975 426"><g opacity=".5"><path fill="url(#paint0_linear_315_489)" d="M974.857 0H0V426H974.857V0Z" opacity=".5"/></g><path fill="#fff" d="M962 4H13V415H962V4Z"/><path fill="#6C63FF" d="M934 30H39V387H934V30Z"/><path fill="#fff" d="M781.738 147L808 147.148C808 147.148 759.173 215.009 755.186 220.539C753.534 222.397 752.104 224.45 750.927 226.656C748.769 232.927 747.061 239.351 745.815 245.877L721.786 246C721.786 246 725.525 232.238 725.371 224.908C725.236 218.505 722.048 212.109 720.261 205.687C718.453 199.185 716 186.464 716 186.464H740.705L744.112 200.444L781.738 147"/><path fill="#fff" d="M731.026 162.957C735.967 165.938 739 182.385 739 182.385C739 182.385 713.143 182.766 699.072 182.766H686.912L672.146 247.087H649.564C649.564 247.087 663.617 177.186 666.935 164.513C668.01 160.41 674.301 161.114 684.923 161.114H701.886C712.839 161.114 725.641 159.714 731.026 162.957V162.957ZM625.896 194.283C626.166 191.125 625.321 187.972 623.508 185.373C620.866 181.297 618.428 180.349 611.478 180.131C591.858 179.515 592.239 194.065 592.239 194.065L625.896 194.283ZM647.175 177.619C650.05 187.999 644.57 212.388 644.57 212.388C644.57 212.388 615.95 211.91 600.274 212.388C595.399 212.537 589.565 211.858 588.114 214.127C586.072 217.307 588.86 222.203 591.223 224.27C593.942 226.651 599.238 226.923 601.142 227.164C613.866 228.782 640.496 227.582 640.496 227.582L635.883 248.024C635.883 248.024 598.251 249.913 579.428 245.417C575.807 244.639 572.488 242.828 569.874 240.203C569.231 239.508 568.673 238.561 568.066 237.743C567.054 236.345 566.203 234.837 565.531 233.248C561.232 221.783 566.034 199.82 570.742 188.051C571.289 186.687 571.975 184.957 572.698 183.487C573.6 181.654 574.364 179.585 575.085 178.489C575.57 177.733 576.171 177.247 576.675 176.533C577.261 175.705 577.89 174.907 578.559 174.144C580.385 172.184 582.424 170.435 584.64 168.93C592.482 163.052 606.674 158.49 623.724 160.236C630.144 160.897 639.838 163.191 644.57 169.798C645.804 172.269 646.681 174.903 647.175 177.621V177.619ZM543.6 161.034L565.497 160.905C565.497 160.905 553.293 218.837 547.074 247.087H521.885C504.281 247.087 488.603 249.269 481.932 236.656C475.462 224.409 481.638 204.27 484.538 190.588C486.588 180.905 490.906 161.113 490.906 161.113L513.593 160.905C513.593 160.905 507.182 191.719 504.514 207.104C503.559 212.615 501.589 217.804 503.647 221.879C505.601 225.757 508.337 226.035 516.674 226.226C519.316 226.289 527.966 226.226 527.966 226.226L543.6 161.034V161.034ZM441.111 202.756C443.403 194.605 446.747 185.765 446.322 178.419C445.971 174.941 444.753 171.606 442.78 168.721C440.808 165.836 438.143 163.493 435.031 161.905C429.948 160.215 424.496 159.97 419.282 161.197C414.068 162.425 409.297 165.077 405.5 168.858C399.342 175.534 397.257 183.332 395.077 194.067C393.454 202.036 392.124 210.449 395.077 216.664C400.305 227.652 416.608 225.253 434.162 225.358C436.768 218.369 438.922 210.52 441.111 202.756V202.756ZM471.51 170.597C474.011 188.797 464.415 208.887 457.804 226.356C464.545 226.965 470.452 226.262 470.877 226.765C471.319 227.417 466.359 247.617 464.63 247.67C459.281 247.809 441.554 247.956 434.162 247.956C410.042 247.956 387.477 249.529 375.97 237.527C371.33 232.1 368.318 225.47 367.283 218.403C366.329 208.476 367.213 198.458 369.89 188.851C371.748 180.958 374.67 173.355 378.575 166.25C388.711 148.545 406.343 135.403 435.899 138.437C442.587 139.277 449.064 141.339 455.008 144.521C455.363 144.73 456.607 145.72 456.892 145.894C463.841 150.319 470.173 160.879 471.51 170.597H471.51ZM364.791 161.14C363.332 167.789 361.873 175.326 360.335 181.897H336.016C337.9 174.613 339.342 167.372 341.227 161.036C349.009 161.036 356.245 161.14 364.792 161.14L364.791 161.14ZM335.147 187.982H358.599C355.532 204.966 349.461 232.362 344.701 251.433C341.723 263.368 339.734 272.077 331.673 278.378C330.952 278.944 330.535 278.675 329.935 279.248C328.45 280.665 321.58 282.309 317.777 282.724C310.856 283.114 303.918 283.091 297 282.655C298.989 275.381 301.239 266.645 303.012 260.124C321.538 262.369 322.007 244.844 325.594 227.965C327.669 218.212 333.958 191.893 335.147 187.982"/><path fill="#21609B" d="M281 231.407L280.496 232.706C271.907 249.339 256.686 259.544 234.976 259.994C225.993 260.116 217.086 258.344 208.84 254.797C195.428 248.653 184.412 238.307 177.479 225.342C168.496 208.041 166.876 183.975 185.554 166C185.843 166 183.288 169.898 183.577 169.898L183.063 171.561C169.604 213.464 211.071 249.375 251.381 245.267C262.478 243.874 272.847 239.022 281 231.407"/><path fill="#21609B" d="M255.82 213.793C266.026 213.716 275.791 209.662 283 202.508C277.477 216.389 261.484 225.311 240.04 222.474C222.083 220.095 204.977 202.205 203.216 184.278C201.927 171.232 206.519 163.446 214.087 154C212.104 157.454 210.796 161.247 210.229 165.18C207.355 193.401 232.999 213.644 255.82 213.793"/><path fill="#21609B" d="M280.999 178.971C279.471 182.558 270.675 189.332 266.79 190.179C251.407 193.534 241.555 186.067 236.395 177.57C235.438 175.767 234.623 173.889 233.956 171.954C231.954 164.989 232.874 154.453 238.844 149C237.154 153.848 236.77 159.072 237.73 164.124C238.635 167.348 240.007 170.416 241.8 173.224C244.101 176.828 247.309 179.731 251.086 181.625C252.559 182.554 254.124 183.321 255.755 183.914C259.63 185.082 267.812 188.158 281 178.971"/><defs><linearGradient id="paint0_linear_315_489" x1="186973" x2="186973" y1="69454.5" y2="0" gradientUnits="userSpaceOnUse"><stop stop-color="gray" stop-opacity=".25"/><stop offset=".535" stop-color="gray" stop-opacity=".12"/><stop offset="1" stop-color="gray" stop-opacity=".1"/></linearGradient></defs></svg>