<svg xmlns="http://www.w3.org/2000/svg" width="1474" height="612" fill="none" viewBox="0 0 1474 612"><path fill="#000" d="M1474 444H0V447H1474V444Z"/><path fill="#000" d="M543.261 159.618H734.511V174.826H560.793V289.281H724.152V304.488H560.793V430.149H736.503V445.357H543.261L543.261 159.618ZM751.644 159.618H771.964L862.011 285.279L954.05 159.618L1079.24 0L873.565 298.486L979.55 445.357H958.433L862.011 311.692L765.191 445.357H744.472L851.253 298.486L751.644 159.618ZM987.12 174.826V159.618H1205.06V174.826H1104.66V445.357H1087.13V174.826H987.12ZM304 159.618H325.914L628.096 612L503.218 445.357L322.328 181.229L321.531 445.357H304V159.618ZM1203.3 425.56C1202.04 425.579 1200.8 425.221 1199.74 424.534C1198.68 423.846 1197.85 422.858 1197.35 421.697C1196.86 420.535 1196.72 419.253 1196.95 418.012C1197.19 416.771 1197.79 415.628 1198.67 414.728C1199.56 413.829 1200.69 413.213 1201.93 412.96C1203.17 412.707 1204.45 412.827 1205.62 413.306C1206.79 413.785 1207.78 414.601 1208.49 415.65C1209.19 416.699 1209.57 417.933 1209.57 419.196C1209.59 420.03 1209.44 420.86 1209.14 421.636C1208.83 422.412 1208.37 423.118 1207.79 423.713C1207.2 424.307 1206.5 424.777 1205.73 425.094C1204.96 425.412 1204.13 425.57 1203.3 425.56V425.56ZM1220.53 408.816H1229.91C1230.03 413.899 1233.74 417.316 1239.2 417.316C1245.3 417.316 1248.75 413.643 1248.75 406.766V363.198H1258.3V406.809C1258.3 419.196 1251.14 426.329 1239.29 426.329C1228.16 426.329 1220.53 419.409 1220.53 408.816V408.816ZM1270.8 408.261H1280.26C1281.07 414.113 1286.79 417.829 1295.02 417.829C1302.69 417.829 1308.32 413.856 1308.32 408.389C1308.32 403.691 1304.74 400.871 1296.59 398.949L1288.66 397.027C1277.53 394.422 1272.46 389.04 1272.46 379.984C1272.46 369.007 1281.41 361.703 1294.85 361.703C1307.34 361.703 1316.47 369.007 1317.02 379.386H1307.72C1306.83 373.705 1301.88 370.16 1294.72 370.16C1287.17 370.16 1282.14 373.791 1282.14 379.344C1282.14 383.743 1285.38 386.263 1293.4 388.143L1300.18 389.808C1312.8 392.756 1318 397.881 1318 407.15C1318 418.939 1308.88 426.329 1294.29 426.329C1280.65 426.329 1271.48 419.281 1270.8 408.261V408.261Z"/></svg>