<svg xmlns="http://www.w3.org/2000/svg" width="563" height="426" fill="none" viewBox="0 0 563 426"><path fill="url(#paint0_linear_315_490)" d="M563 0H0V426H563V0Z"/><path fill="#fff" d="M551 11H12V414H551V11Z"/><path fill="#6C63FF" d="M531 31H30V394H531V31Z"/><path fill="#fff" d="M129 211.409C128.927 234.331 151.425 255.798 186.962 267.971C179.745 303.422 185.486 332.033 204.926 343.234C224.909 354.749 254.758 346.915 283.144 322.46C310.662 346.099 338.519 355.455 358.014 344.344C378.052 332.922 384.231 302.411 377.047 265.807C414.141 253.772 434.926 235.592 435 212.368C435.071 189.979 412.526 170.539 377.467 158.445C385.448 120.377 378.878 92.4583 358.631 80.7939C339.112 69.548 310.87 79.2079 282.794 103.288C253.747 77.5449 225.84 69.6261 205.541 81.1957C185.969 92.3512 180.302 121.446 187.314 157.598C152.901 169.377 129.071 189.111 129 211.409Z"/><path fill="#53C1DE" d="M369.951 170.947C367.069 169.954 364.164 169.033 361.235 168.185C361.727 166.221 362.183 164.249 362.602 162.268C369.307 130.392 365.071 104.683 350.353 96.1776C336.242 88.0205 313.094 96.4066 289.679 116.553C287.371 118.542 285.116 120.589 282.912 122.693C281.445 121.285 279.953 119.905 278.434 118.552C254.03 96.8534 229.529 87.666 214.773 96.1035C200.623 104.194 196.363 128.339 202.213 158.586C202.795 161.581 203.453 164.561 204.187 167.524C200.713 168.494 197.358 169.529 194.147 170.631C165.425 180.494 147.051 196.036 147 212.216C146.947 228.928 166.563 245.752 196.416 256.009C198.837 256.837 201.277 257.604 203.737 258.311C202.927 261.498 202.207 264.704 201.578 267.932C195.815 297.617 200.167 321.216 214.228 329.346C228.751 337.739 253.196 329.235 277.04 308.629C278.925 307 280.815 305.277 282.712 303.46C285.084 305.752 287.519 307.976 290.016 310.134C312.986 329.927 335.708 337.962 349.808 329.9C364.37 321.572 369.174 296.251 363.138 265.405C362.678 263.049 362.144 260.644 361.536 258.192C363.253 257.693 364.934 257.177 366.581 256.642C397.681 246.498 417.946 230.003 418 213.068C418.051 196.829 399.188 181.065 369.951 170.947H369.951Z"/><path fill="#fff" d="M361.874 245.85C360.402 246.336 358.891 246.805 357.352 247.259C353.627 235.51 349.113 224.031 343.839 212.9C348.981 201.951 353.39 190.668 357.036 179.126C359.784 179.938 362.453 180.792 365.024 181.693C389.888 190.4 405.031 203.207 405 213.037C404.967 223.509 388.527 237.051 361.875 245.85H361.874ZM350.758 267.86C353.406 281.561 353.752 293.942 351.938 303.614C350.309 312.305 347.069 318.092 343.079 320.402C334.587 325.316 316.478 318.835 296.983 301.832C294.747 299.883 292.499 297.805 290.238 295.6C298.418 286.538 305.981 276.93 312.875 266.841C325.136 265.839 337.314 263.988 349.323 261.302C349.863 263.534 350.342 265.72 350.758 267.86V267.86ZM238.876 319.216C230.585 322.136 223.989 322.198 220.009 319.871C211.54 314.917 208.073 295.881 212.964 270.38C213.545 267.366 214.21 264.37 214.956 261.393C226.898 264.016 239.003 265.82 251.188 266.792C258.219 276.89 265.902 286.511 274.187 295.594C272.512 297.214 270.799 298.793 269.047 300.329C258.582 309.484 248.104 315.967 238.877 319.216H238.876ZM200.309 245.271C187.207 240.715 176.394 234.814 168.989 228.389C162.336 222.613 158.986 216.89 159 212.254C159.031 202.392 173.673 189.857 198.054 181.384C201.115 180.325 204.204 179.357 207.322 178.48C210.901 190.173 215.245 201.615 220.324 212.731C215.111 223.973 210.64 235.55 206.942 247.386C204.714 246.736 202.503 246.031 200.309 245.271ZM213.595 156.159C208.621 130.125 212.039 110.51 220.503 105.613C229.519 100.395 249.393 107.939 270.307 126.759C271.644 127.962 272.986 129.221 274.331 130.524C266.047 139.496 258.362 149.011 251.328 159.006C239.252 160.058 227.257 161.896 215.417 164.509C214.74 161.741 214.133 158.957 213.595 156.157V156.159ZM329.53 185.379C326.914 180.797 324.202 176.273 321.393 171.807C329.972 172.925 338.19 174.402 345.905 176.202C343.402 184.11 340.504 191.885 337.223 199.499C334.752 194.741 332.188 190.035 329.53 185.379ZM282.36 138.819C287.936 144.978 293.198 151.418 298.129 158.112C287.539 157.574 276.942 157.538 266.338 158.004C271.585 151.08 276.959 144.65 282.36 138.819ZM234.596 185.156C231.943 189.757 229.397 194.418 226.959 199.14C223.638 191.137 220.8 183.27 218.486 175.674C226.166 173.969 234.354 172.581 242.884 171.535C240.016 176.01 237.253 180.55 234.596 185.156ZM242.87 254.333C234.547 253.397 226.277 252.031 218.093 250.241C220.492 242.526 223.444 234.508 226.887 226.355C229.305 231.094 231.832 235.774 234.469 240.395C237.159 245.108 239.959 249.754 242.87 254.333V254.333ZM282.212 287.292C276.785 281.357 271.373 274.794 266.09 267.737C271.239 267.957 276.484 268.076 281.826 268.093C287.309 268.111 292.722 268.007 298.064 267.782C293.115 274.554 287.824 281.066 282.212 287.292V287.292ZM337.248 226.29C340.643 234.081 343.632 242.044 346.206 250.147C337.917 251.996 329.537 253.407 321.102 254.375C323.959 249.845 326.726 245.259 329.403 240.617C332.123 235.901 334.738 231.125 337.248 226.29V226.29ZM319.467 234.805C315.37 241.92 311.046 248.895 306.497 255.731C298.515 256.28 290.267 256.55 281.862 256.523C273.493 256.496 265.351 256.208 257.511 255.671C252.89 248.826 248.53 241.812 244.432 234.63C240.356 227.491 236.554 220.203 233.025 212.768C236.588 205.358 240.425 198.091 244.534 190.967V190.97C248.639 183.849 253.009 176.893 257.642 170.102C265.643 169.518 273.846 169.226 282.137 169.252C290.465 169.278 298.677 169.626 306.672 170.265C311.213 177.07 315.511 184.03 319.567 191.145C323.643 198.274 327.485 205.531 331.094 212.916C327.478 220.349 323.603 227.645 319.468 234.805H319.467ZM343.577 105.66C352.567 110.92 356.004 132.027 350.258 159.673C349.881 161.474 349.473 163.268 349.032 165.054C337.19 162.312 325.182 160.362 313.085 159.218C306.184 149.167 298.618 139.595 290.438 130.569C292.459 128.62 294.526 126.722 296.641 124.875C316.554 107.534 335.135 100.722 343.577 105.66V105.66Z"/><path fill="#53C1DE" d="M283.075 190C287.822 190.014 292.458 191.377 296.396 193.916C300.335 196.456 303.399 200.057 305.202 204.265C307.005 208.473 307.465 213.099 306.524 217.558C305.583 222.017 303.284 226.108 299.917 229.315C296.55 232.521 292.266 234.699 287.608 235.572C282.949 236.445 278.125 235.975 273.745 234.221C269.366 232.467 265.627 229.508 263.002 225.717C260.378 221.927 258.985 217.476 259 212.927C259.01 209.906 259.641 206.918 260.856 204.131C262.071 201.344 263.847 198.814 266.083 196.685C268.319 194.556 270.97 192.87 273.885 191.723C276.801 190.576 279.924 189.991 283.075 190"/><defs><linearGradient id="paint0_linear_315_490" x1="360251" x2="360251" y1="200346" y2="108930" gradientUnits="userSpaceOnUse"><stop stop-color="gray" stop-opacity=".25"/><stop offset=".535" stop-color="gray" stop-opacity=".12"/><stop offset="1" stop-color="gray" stop-opacity=".1"/></linearGradient></defs></svg>